# xmcd
#
# Track frame offsets: 
#        150
#        15630
#        33405
#        44707
#        60739
#        83264
#        103047
#        117566
#        126234
#        139769
#        150761
#        166631
#
# Disc length: 2417 seconds
#
# Revision: 0
# Processed by: cddbd v1.5.2PL0 Copyright (c) Steve Scherf et al.
# Submitted via: ExactAudioCopy v0.99pb5
#
DISCID=90096f0c
DTITLE=Trampled By Turtles - Palomino
DYEAR=2010
DGENRE=Bluegrass
TTITLE0=Wait So Long
TTITLE1=Victory
TTITLE2=It's A War
TTITLE3=Separate
TTITLE4=Bloodshot Eyes
TTITLE5=New Son/Burnt Iron
TTITLE6=Help You
TTITLE7=Feet And Bones
TTITLE8=Gasoline
TTITLE9=Sounds Like A Movie
TTITLE10=New Orleans
TTITLE11=Again
EXTD=
EXTT0=
EXTT1=
EXTT2=
EXTT3=
EXTT4=
EXTT5=
EXTT6=
EXTT7=
EXTT8=
EXTT9=
EXTT10=
EXTT11=
PLAYORDER=
